<svg width="50" height="32" viewBox="0 0 50 32" fill="none" xmlns="http://www.w3.org/2000/svg">
<path d="M14.3573 20.7286L0.0876465 13.3786V10.6446L14.3573 3.29285V7.54463L5.45015 12.0107L14.3573 16.475V20.7286Z" fill="#DBA5FF"/>
<path d="M27.3446 21.0768H23.2678L31.3803 0H35.4857L27.3446 21.0768Z" fill="#DBA5FF"/>
<path d="M35.6426 20.7232V16.4732L44.6122 12.0107L35.6426 7.54817V3.29639L49.9122 10.616V13.4053L35.6426 20.7232Z" fill="#DBA5FF"/>
<path d="M18.9875 31.1893L16.0125 28.2161L13.0357 31.1875L10.0393 28.2125L7.04821 31.1857L4.06071 28.2125L2.14286 30.1196L0 28.7143L4.06071 24.6696L7.04821 27.6464L10.0393 24.6732L13.0304 27.6464L16.0125 24.6678L18.9929 27.6428L21.9696 24.6732L24.9679 27.6482L27.9571 24.6696L30.9482 27.6482L33.9482 24.675L36.9393 27.6482L39.9393 24.6732L42.9268 27.6482L45.925 24.6768L50 28.7089L47.8607 30.1232L45.925 28.2071L42.9196 31.1839L39.9357 28.2125L36.9375 31.1839L33.9446 28.2089L30.9429 31.1839L27.9571 28.2125L24.9696 31.1839L21.975 28.2125L18.9875 31.1893Z" fill="#DBA5FF"/>
</svg>
